<?xml version="1.0" encoding="UTF-8" standalone="no"?>
<!-- Created with Inkscape (http://www.inkscape.org/) -->

<svg
   xmlns:dc="http://purl.org/dc/elements/1.1/"
   xmlns:cc="http://creativecommons.org/ns#"
   xmlns:rdf="http://www.w3.org/1999/02/22-rdf-syntax-ns#"
   xmlns:svg="http://www.w3.org/2000/svg"
   xmlns="http://www.w3.org/2000/svg"
   xmlns:sodipodi="http://sodipodi.sourceforge.net/DTD/sodipodi-0.dtd"
   xmlns:inkscape="http://www.inkscape.org/namespaces/inkscape"
   inkscape:version="0.91 r13725"
   version="1.1"
   id="svg4871"
   viewBox="0 0 534.87402 305.83534"
   height="86.31353mm"
   width="150.95334mm"
   inkscape:export-filename="/Users/m/Pictures/Graphics/LUG/supercoderdojo/title.png"
   inkscape:export-xdpi="300"
   inkscape:export-ydpi="300"
   sodipodi:docname="shirt-title.svg">
  <sodipodi:namedview
     inkscape:window-maximized="1"
     inkscape:window-y="1"
     inkscape:window-x="0"
     inkscape:window-height="1031"
     inkscape:window-width="1920"
     showgrid="false"
     inkscape:current-layer="layer15"
     inkscape:document-units="px"
     inkscape:cy="152.9177"
     inkscape:cx="389.53969"
     inkscape:zoom="2.287315"
     inkscape:pageshadow="2"
     inkscape:pageopacity="0.0"
     borderopacity="1.0"
     bordercolor="#666666"
     pagecolor="#ffffff"
     id="base"
     fit-margin-top="0"
     fit-margin-left="0"
     fit-margin-right="0"
     fit-margin-bottom="0" />
  <defs
     id="defs4873" />
  <metadata
     id="metadata4876">
    <rdf:RDF>
      <cc:Work
         rdf:about="">
        <dc:format>image/svg+xml</dc:format>
        <dc:type
           rdf:resource="http://purl.org/dc/dcmitype/StillImage" />
        <dc:title></dc:title>
      </cc:Work>
    </rdf:RDF>
  </metadata>
  <g
     inkscape:label="o3"
     id="layer15"
     inkscape:groupmode="layer"
     transform="translate(43.884304,-324.69473)">
    <g
       id="g81323"
       transform="translate(-2,-4)">
      <g
         id="g81325"
         style="font-style:normal;font-variant:normal;font-weight:normal;font-stretch:normal;font-size:160px;line-height:125%;font-family:'League Gothic';-inkscape-font-specification:'League Gothic';text-align:start;letter-spacing:0px;word-spacing:0px;writing-mode:lr-tb;text-anchor:start;display:inline;fill:#ffcc00;fill-opacity:1;stroke:#000000;stroke-width:3;stroke-linecap:round;stroke-linejoin:round;stroke-miterlimit:4;stroke-dasharray:none;stroke-opacity:1">
        <path
           d="m 427.13477,452.44922 c -1.4503,0.0777 -2.17928,0.78738 -2.52539,1.47656 l 6.79882,3.61524 0.16016,25.23242 c 0.004,0.67389 -0.0892,1.22256 -0.38086,1.64258 -0.38687,0.90751 -1.26757,1.61933 -3.14258,1.56836 -0.7806,-0.0212 -1.41248,-0.18028 -1.89258,-0.43555 l 49.44532,26.28906 c 0.48009,0.25527 1.11197,0.41431 1.89257,0.43555 1.87501,0.051 2.75376,-0.6589 3.14063,-1.56641 0.29167,-0.42002 0.38708,-0.96869 0.38281,-1.64258 l -0.16992,-26.71093 c -0.008,-1.24247 -0.40851,-2.13988 -1.4043,-2.95508 -0.0778,-0.054 -0.16239,-0.10564 -0.2539,-0.1543 l -49.44532,-26.28906 c -0.4953,-0.26336 -1.18225,-0.44512 -1.93945,-0.49805 -0.23758,-0.0166 -0.45883,-0.0189 -0.66601,-0.008 z"
           transform="translate(0,-1.5258789e-5)"
           id="path81361"
           style="fill:#000000"
           inkscape:connector-curvature="0" />
        <path
           d="M 413.20117,454.86914 413.5,482.20508 c 0.12316,1.88305 0.75641,3.59069 1.89648,5.05664 0.84723,1.15554 2.02874,2.26489 3.76758,3.18945 l 49.44532,26.28906 c -1.73885,-0.92456 -2.92036,-2.03195 -3.76758,-3.1875 -1.14007,-1.46595 -1.77333,-3.17359 -1.89649,-5.05664 l -0.29883,-27.33593 -49.44531,-26.29102 z"
           transform="translate(0,-1.5258789e-5)"
           id="path81337"
           style="fill:#000000"
           inkscape:connector-curvature="0" />
        <path
           id="path81343"
           d="m 462.64641,481.1599 c 0.0833,-1.83732 0.6853,-3.5123 1.80541,-4.89455 l -49.44507,-26.29041 c -1.12011,1.38225 -1.72211,3.05723 -1.80541,4.89455 z"
           style="fill:#003399"
           inkscape:connector-curvature="0" />
        <path
           d="m 425.18945,445.79688 c -2.416,0.0332 -4.38704,0.41341 -5.9082,1.00781 -2.03772,0.79624 -3.36146,1.96606 -4.27539,3.16992 l 49.44531,26.29101 c 0.91393,-1.20386 2.23767,-2.37563 4.27539,-3.17187 2.02822,-0.79253 4.85743,-1.20288 8.47266,-0.91992 3.47958,0.27234 6.09689,1.06474 8.04687,2.10156 l -49.44531,-26.29101 c -1.94998,-1.03684 -4.5673,-1.82727 -8.04687,-2.09961 -0.90381,-0.0707 -1.75912,-0.099 -2.56446,-0.0879 z"
           transform="translate(0,-1.5258789e-5)"
           id="path81345"
           style="fill:#003399"
           inkscape:connector-curvature="0" />
      </g>
      <path
         d="m 491.46842,509.393 c -0.0888,1.80983 -0.65578,3.4245 -1.70292,4.78661 -0.85802,1.18796 -2.19892,2.30671 -4.12508,3.1741 -1.93453,0.93211 -4.56489,1.42903 -8.104,1.36177 -3.57132,-0.0679 -6.37649,-0.67689 -8.39845,-1.70758 -2.0327,-0.97432 -3.36592,-2.18659 -4.29645,-3.45576 -1.14007,-1.46595 -1.77349,-3.17286 -1.89665,-5.05591 0,0 -0.29846,-27.33633 -0.29846,-27.33633 0.0833,-1.83732 0.6853,-3.5123 1.80541,-4.89455 0.91393,-1.20386 2.2369,-2.37486 4.27462,-3.1711 2.02822,-0.79253 4.85756,-1.20281 8.47279,-0.91985 3.58224,0.28038 6.25107,1.11086 8.21819,2.19294 1.95632,1.07615 3.32193,2.41175 4.19866,3.70711 1.06781,1.48947 1.652,3.18627 1.75479,4.97005 0,0 0.0975,26.3485 0.0975,26.3485 0,0 0,0 0,0 m -10.62412,-27.03914 c -0.008,-1.24247 -0.40902,-2.13968 -1.40481,-2.95488 -0.49856,-0.34614 -1.29554,-0.58883 -2.19264,-0.65154 -1.90064,-0.13286 -2.79718,0.68192 -3.19275,1.46956 -0.29773,0.4813 -0.39377,1.03894 -0.38866,1.66586 0,0 0.21972,26.95733 0.21972,26.95733 0.0106,1.29811 0.5166,2.17737 1.5179,2.88399 0.49934,0.32176 1.19539,0.52539 2.08669,0.54964 1.87501,0.051 2.75524,-0.65983 3.14211,-1.56734 0.29167,-0.42002 0.38626,-0.96828 0.38199,-1.64217 0,0 -0.16955,-26.71045 -0.16955,-26.71045 0,0 0,0 0,0"
         style="font-style:normal;font-variant:normal;font-weight:normal;font-stretch:normal;font-size:160px;line-height:125%;font-family:'League Gothic';-inkscape-font-specification:'League Gothic';text-align:start;letter-spacing:0px;word-spacing:0px;writing-mode:lr-tb;text-anchor:start;display:inline;fill:#ffcc00;fill-opacity:1;stroke:#000000;stroke-width:3;stroke-linecap:round;stroke-linejoin:round;stroke-miterlimit:4;stroke-dasharray:none;stroke-opacity:1"
         id="path13029"
         inkscape:connector-curvature="0" />
    </g>
  </g>
  <g
     inkscape:groupmode="layer"
     id="layer14"
     inkscape:label="j1"
     style="display:inline"
     transform="translate(43.884304,-324.69473)">
    <g
       id="g80405"
       transform="translate(-2,-2)">
      <g
         style="font-style:normal;font-variant:normal;font-weight:normal;font-stretch:normal;font-size:160px;line-height:125%;font-family:'League Gothic';-inkscape-font-specification:'League Gothic';text-align:start;letter-spacing:0px;word-spacing:0px;writing-mode:lr-tb;text-anchor:start;fill:#ffcc00;fill-opacity:1;stroke:#000000;stroke-width:3;stroke-linecap:round;stroke-linejoin:round;stroke-miterlimit:4;stroke-dasharray:none;stroke-opacity:1"
         id="g80407">
        <path
           inkscape:connector-curvature="0"
           style="fill:#003399"
           d="m 437.51946,510.81836 c 2.4956,0.20425 4.38456,-0.11009 5.79808,-1.13114 l -52.47718,-29.08858 c -1.41352,1.02105 -3.30248,1.33539 -5.79808,1.13114 z"
           id="path80409" />
        <path
           inkscape:connector-curvature="0"
           style="fill:#000000"
           d="m 443.31754,509.68722 c 0.70409,-0.44472 1.05914,-1.21208 1.0663,-2.30349 l -52.47718,-29.08858 c -0.007,1.09141 -0.36221,1.85877 -1.0663,2.30349 z"
           id="path80411" />
        <path
           inkscape:connector-curvature="0"
           style="fill:#000000"
           d="m 444.38384,507.38373 c 0,0 0.24892,-37.92933 0.24892,-37.92933 l -52.47718,-29.08858 c 0,0 -0.24892,37.92933 -0.24892,37.92933 z"
           id="path80413" />
        <path
           inkscape:connector-curvature="0"
           style="fill:#003399"
           d="m 444.63276,469.4544 c 0,0 12.49223,0.98535 12.49223,0.98535 l -52.47718,-29.08858 c 0,0 -12.49223,-0.98535 -12.49223,-0.98535 z"
           id="path80415" />
        <path
           inkscape:connector-curvature="0"
           style="fill:#003399"
           d="m 437.49264,517.67381 c 0,0 0.0268,-6.85545 0.0268,-6.85545 l -52.47718,-29.08858 c 0,0 -0.0268,6.85545 -0.0268,6.85545 z"
           id="path80423" />
      </g>
      <path
         inkscape:connector-curvature="0"
         id="path12543"
         style="font-style:normal;font-variant:normal;font-weight:normal;font-stretch:normal;font-size:160px;line-height:125%;font-family:'League Gothic';-inkscape-font-specification:'League Gothic';text-align:start;letter-spacing:0px;word-spacing:0px;writing-mode:lr-tb;text-anchor:start;fill:#ffcc00;fill-opacity:1;stroke:#000000;stroke-width:3;stroke-linecap:round;stroke-linejoin:round;stroke-miterlimit:4;stroke-dasharray:none;stroke-opacity:1"
         d="m 437.51946,510.81836 c 2.4956,0.20425 4.38456,-0.11009 5.79808,-1.13114 0.70409,-0.44472 1.05914,-1.21208 1.0663,-2.30349 0,0 0.24892,-37.92933 0.24892,-37.92933 0,0 12.49223,0.98535 12.49223,0.98535 0,0 -0.43219,38.14029 -0.43219,38.14029 -0.0284,2.50743 -1.17003,4.82288 -3.99532,6.52285 -2.85087,1.71535 -7.68606,2.76558 -15.20484,2.57092 0,0 0.0268,-6.85545 0.0268,-6.85545 0,0 0,0 0,0" />
    </g>
  </g>
  <g
     style="display:inline"
     inkscape:label="o2"
     id="layer13"
     inkscape:groupmode="layer"
     transform="translate(43.884304,-324.69473)">
    <g
       id="g78063"
       transform="translate(-2,0)">
      <g
         id="g78065"
         style="font-style:normal;font-variant:normal;font-weight:normal;font-stretch:normal;font-size:160px;line-height:125%;font-family:'League Gothic';-inkscape-font-specification:'League Gothic';text-align:start;letter-spacing:0px;word-spacing:0px;writing-mode:lr-tb;text-anchor:start;fill:#ffcc00;fill-opacity:1;stroke:#000000;stroke-width:3;stroke-linecap:round;stroke-linejoin:round;stroke-miterlimit:4;stroke-dasharray:none;stroke-opacity:1">
        <path
           d="m 363.95508,446.66602 0.3164,29.55664 c 0.008,0.73869 -0.1105,1.34752 -0.48046,1.83007 -0.4891,1.02349 -1.60622,1.86818 -3.99219,1.95508 l 55.42578,32 c 2.38597,-0.0869 3.50309,-0.93159 3.99219,-1.95508 0.36996,-0.48255 0.48839,-1.09138 0.48047,-1.83007 l -0.31641,-29.55664 -55.42578,-32 z"
           transform="translate(0,-1.5258789e-5)"
           id="path78117"
           style="fill:#000000"
           inkscape:connector-curvature="0" />
        <path
           d="m 340.58203,446.80273 0.70117,30.17969 c 0.17797,2.05049 1.00121,3.86903 2.46289,5.38281 0.71938,0.79231 1.62324,1.5501 2.79493,2.22657 l 55.42578,32 c -1.17168,-0.67647 -2.07555,-1.43426 -2.79492,-2.22657 -1.46169,-1.51378 -2.28493,-3.33232 -2.4629,-5.38281 l -0.70117,-30.17969 -55.42578,-32 z"
           transform="translate(0,-1.5258789e-5)"
           id="path78077"
           style="fill:#000000"
           inkscape:connector-curvature="0" />
        <path
           d="m 342.8418,441.1875 c -1.4221,1.63749 -2.17477,3.55795 -2.25977,5.61523 l 55.42578,32 c 0.085,-2.05728 0.83767,-3.97774 2.25977,-5.61523 l -55.42578,-32 z"
           transform="translate(0,-1.5258789e-5)"
           id="path78083"
           style="fill:#003399"
           inkscape:connector-curvature="0" />
        <path
           d="m 359.21289,435.55273 c -4.66268,-0.0206 -8.30431,0.67397 -10.9082,1.73047 -2.6134,1.06037 -4.30209,2.48154 -5.46289,3.9043 l 55.42578,32 c 1.1608,-1.42276 2.84949,-2.84393 5.46289,-3.9043 2.60389,-1.0565 6.24552,-1.75112 10.9082,-1.73047 4.62308,0.0205 8.07104,0.73593 10.61328,1.79102 0.71997,0.29881 1.37746,0.62481 1.97657,0.9707 l -55.42579,-32 c -0.59911,-0.34589 -1.25659,-0.67189 -1.97656,-0.9707 -2.54224,-1.05509 -5.9902,-1.77052 -10.61328,-1.79102 z"
           transform="translate(0,-1.5258789e-5)"
           id="path78085"
           style="fill:#003399"
           inkscape:connector-curvature="0" />
      </g>
      <path
         inkscape:connector-curvature="0"
         id="path29762"
         style="font-style:normal;font-variant:normal;font-weight:normal;font-stretch:normal;font-size:160px;line-height:125%;font-family:'League Gothic';-inkscape-font-specification:'League Gothic';text-align:start;letter-spacing:0px;word-spacing:0px;writing-mode:lr-tb;text-anchor:start;fill:#ffcc00;fill-opacity:1;stroke:#000000;stroke-width:3;stroke-linecap:round;stroke-linejoin:round;stroke-miterlimit:4;stroke-dasharray:none;stroke-opacity:1"
         d="m 433.03839,507.7815 c -0.11496,1.99321 -0.83979,3.80656 -2.17575,5.37778 -1.09349,1.36465 -2.80076,2.68884 -5.2512,3.78146 -2.45841,1.1627 -5.7996,1.9023 -10.29398,2.09505 -4.53182,0.19436 -8.09339,-0.25798 -10.66529,-1.2283 -2.58557,-0.90834 -4.28758,-2.12907 -5.48056,-3.443 -1.46168,-1.51378 -2.28448,-3.33063 -2.46245,-5.38112 0,0 -0.70063,-30.18103 -0.70063,-30.18103 0.085,-2.05728 0.83751,-3.97779 2.25961,-5.61528 1.1608,-1.42276 2.8491,-2.84362 5.4625,-3.90399 2.60389,-1.0565 6.24564,-1.75024 10.90832,-1.72959 4.62308,0.0205 8.07093,0.73501 10.61317,1.7901 2.52753,1.04899 4.2916,2.43737 5.42354,3.81964 1.37762,1.58336 2.13011,3.43692 2.26112,5.42474 0,0 0.1016,29.19354 0.1016,29.19354 0,0 0,0 0,0 M 419.381,478.66666 c -0.0149,-1.38812 -0.53464,-2.35918 -1.81979,-3.19065 -0.6433,-0.34697 -1.67028,-0.55392 -2.8251,-0.55121 -2.44604,0.006 -3.5937,0.99018 -4.09687,1.90296 -0.37928,0.56202 -0.49877,1.19279 -0.48782,1.89248 0,0 0.4666,29.80299 0.4666,29.80299 0.0222,1.42129 0.67169,2.34523 1.94958,3.04215 0.63696,0.31398 1.52337,0.48376 2.65724,0.44246 2.38597,-0.0869 3.50346,-0.93203 3.99256,-1.95552 0.36996,-0.48255 0.48847,-1.09079 0.48055,-1.82948 0,0 -0.31695,-29.55618 -0.31695,-29.55618 0,0 0,0 0,0" />
    </g>
  </g>
  <g
     inkscape:groupmode="layer"
     id="layer12"
     inkscape:label="d2"
     style="display:inline"
     sodipodi:insensitive="true"
     transform="translate(43.884304,-324.69473)">
    <g
       id="g77138">
      <g
         style="font-style:normal;font-variant:normal;font-weight:normal;font-stretch:normal;font-size:160px;line-height:125%;font-family:'League Gothic';-inkscape-font-specification:'League Gothic';text-align:start;letter-spacing:0px;word-spacing:0px;writing-mode:lr-tb;text-anchor:start;fill:#ffcc00;fill-opacity:1;stroke:#000000;stroke-width:3;stroke-linecap:round;stroke-linejoin:round;stroke-miterlimit:4;stroke-dasharray:none;stroke-opacity:1"
         id="g77140">
        <path
           inkscape:connector-curvature="0"
           style="fill:#000000"
           id="path77160"
           transform="translate(0,-1.5258789e-5)"
           d="m 316.12891,442.07422 c 0.65175,0.39161 1.17668,0.93828 1.59961,1.68945 0.65898,1.32032 1.20892,3.24739 1.40039,5.79688 0.19357,2.62632 0.28735,6.16843 0.40625,10.69726 0.11914,4.53725 0.21135,8.09661 0.15625,10.76367 -0.0552,2.67115 -0.50253,4.70206 -1.09571,6.06641 -1.31351,2.9077 -3.96934,3.52506 -8.72265,4.08008 l 56.57226,33.99219 c 4.75331,-0.55502 7.40915,-1.17238 8.72266,-4.08008 0.59318,-1.36435 1.04245,-3.39526 1.09765,-6.06641 0.0551,-2.66706 -0.0391,-6.22642 -0.1582,-10.76367 -0.1189,-4.52883 -0.21268,-8.07095 -0.40625,-10.69727 -0.19147,-2.54949 -0.73946,-4.47655 -1.39844,-5.79687 -0.42292,-0.75117 -0.9498,-1.29784 -1.60156,-1.68945 l -56.57226,-33.99219 z" />
        <path
           inkscape:connector-curvature="0"
           style="fill:#000000"
           d="m 352.28808,525.43912 c 0,0 -1.23132,-57.96543 -1.23132,-57.96543 l -56.57304,-33.99251 c 0,0 1.23132,57.96543 1.23132,57.96543 z"
           id="path77142" />
        <path
           inkscape:connector-curvature="0"
           style="fill:#003399"
           id="path77144"
           transform="translate(0,-1.5258789e-5)"
           d="m 309.38477,433.04102 c -1.15717,0.007 -2.37061,0.0306 -3.64649,0.0723 l -11.2539,0.36719 56.57226,33.99414 11.25391,-0.36914 c 10.20704,-0.33341 16.5181,0.41722 20.47851,2.79687 L 326.2168,435.9082 c -3.46537,-2.0822 -8.73189,-2.91461 -16.83203,-2.86718 z" />
      </g>
      <path
         d="m 352.28808,525.43912 c 0,0 -1.23132,-57.96543 -1.23132,-57.96543 0,0 11.25382,-0.3676 11.25382,-0.3676 12.70077,-0.41486 19.37018,0.84643 22.98333,4.83953 3.45564,3.95593 4.12523,10.67473 4.43288,21.26593 0.30899,10.63733 0.0287,17.43752 -3.2098,22.00872 -3.40624,4.65108 -10.051,7.04053 -22.86725,8.72529 0,0 -11.36166,1.49356 -11.36166,1.49356 0,0 0,0 0,0 m 14.15798,-10.27841 c 4.75331,-0.55502 7.40836,-1.17211 8.72187,-4.07981 0.59318,-1.36435 1.04186,-3.39572 1.09708,-6.06687 0.0551,-2.66706 -0.0383,-6.22713 -0.15744,-10.76438 -0.1189,-4.52883 -0.21188,-8.07056 -0.40545,-10.69688 -0.19147,-2.54949 -0.74071,-4.47604 -1.39969,-5.79636 -1.44469,-2.56594 -4.09857,-2.74283 -8.82146,-2.52081 0,0 0.96509,39.92511 0.96509,39.92511 0,0 0,0 0,0"
         style="font-style:normal;font-variant:normal;font-weight:normal;font-stretch:normal;font-size:160px;line-height:125%;font-family:'League Gothic';-inkscape-font-specification:'League Gothic';text-align:start;letter-spacing:0px;word-spacing:0px;writing-mode:lr-tb;text-anchor:start;fill:#ffcc00;fill-opacity:1;stroke:#000000;stroke-width:3;stroke-linecap:round;stroke-linejoin:round;stroke-miterlimit:4;stroke-dasharray:none;stroke-opacity:1"
         id="path12891"
         inkscape:connector-curvature="0" />
    </g>
  </g>
  <g
     style="display:inline"
     inkscape:label="r2"
     id="layer11"
     inkscape:groupmode="layer"
     sodipodi:insensitive="true"
     transform="translate(43.884304,-324.69473)">
    <g
       id="g74867">
      <g
         id="g74869"
         style="font-style:normal;font-variant:normal;font-weight:normal;font-stretch:normal;font-size:160px;line-height:125%;font-family:'League Gothic';-inkscape-font-specification:'League Gothic';text-align:start;letter-spacing:0px;word-spacing:0px;writing-mode:lr-tb;text-anchor:start;fill:#ffcc00;fill-opacity:1;stroke:#000000;stroke-width:3;stroke-linecap:round;stroke-linejoin:round;stroke-miterlimit:4;stroke-dasharray:none;stroke-opacity:1">
        <path
           id="path74871"
           d="m 332.55996,529.68486 c 0,0 -7.3595,-24.23124 -7.3595,-24.23124 l -59.36337,-37.09435 c 0,0 7.3595,24.23124 7.3595,24.23124 z"
           style="fill:#000000"
           inkscape:connector-curvature="0" />
        <path
           d="m 270.05469,442.99805 c 1.71751,1.07322 2.97324,3.12822 2.93359,6.79687 -0.0463,4.28749 -1.8196,6.79689 -4.00781,8.3125 -2.21333,1.53299 -5.00025,2.16346 -7.11524,2.51563 l 59.36329,37.09375 c 2.11499,-0.35217 4.9019,-0.98264 7.11523,-2.51563 2.18821,-1.51561 3.96146,-4.02306 4.00781,-8.31055 0.0397,-3.66865 -1.21607,-5.7256 -2.93359,-6.79882 l -59.36328,-37.09375 z"
           transform="translate(0,-1.5258789e-5)"
           id="path74895"
           style="fill:#000000"
           inkscape:connector-curvature="0" />
        <path
           id="path74879"
           d="m 304.81325,536.72877 c 0,0 0.88521,-64.98753 0.88521,-64.98753 l -59.36337,-37.09435 c 0,0 -0.88521,64.98753 -0.88521,64.98753 z"
           style="fill:#000000"
           inkscape:connector-curvature="0" />
        <path
           d="m 268.23047,432.7793 c -1.85331,0.002 -3.86166,0.1082 -6.03516,0.32031 l -15.85937,1.54687 59.36328,37.09571 15.85937,-1.54883 c 8.69401,-0.84842 14.77259,-5.1e-4 18.66797,2.43359 l -59.36328,-37.0957 c -2.92154,-1.82558 -7.07287,-2.75751 -12.63281,-2.75195 z"
           transform="translate(0,-1.5258789e-5)"
           id="path74881"
           style="fill:#003399"
           inkscape:connector-curvature="0" />
      </g>
      <path
         d="m 332.55996,529.68486 c 0,0 -7.3595,-24.23124 -7.3595,-24.23124 0,0 -4.07347,0.76489 -4.07347,0.76489 0,0 -0.31636,26.44909 -0.31636,26.44909 0,0 -15.99738,4.06117 -15.99738,4.06117 0,0 0.88521,-64.98753 0.88521,-64.98753 0,0 15.85943,-1.54767 15.85943,-1.54767 17.42186,-1.70015 24.34067,3.40862 24.2368,14.45149 -0.0546,5.80972 -2.49271,11.47937 -7.77559,14.66287 0,0 8.50795,26.83118 8.50795,26.83118 0,0 -13.96709,3.54575 -13.96709,3.54575 0,0 0,0 0,0 M 321.22867,497.7176 c 2.11499,-0.35217 4.90226,-0.98373 7.11559,-2.51672 2.18821,-1.51561 3.96187,-4.0235 4.00822,-8.31099 0.0463,-4.28364 -1.6753,-6.36788 -3.83354,-7.25721 -2.18191,-0.8991 -4.95947,-0.64855 -7.06923,-0.39486 0,0 -0.22104,18.47978 -0.22104,18.47978 0,0 0,0 0,0"
         style="font-style:normal;font-variant:normal;font-weight:normal;font-stretch:normal;font-size:160px;line-height:125%;font-family:'League Gothic';-inkscape-font-specification:'League Gothic';text-align:start;letter-spacing:0px;word-spacing:0px;writing-mode:lr-tb;text-anchor:start;fill:#ffcc00;fill-opacity:1;stroke:#000000;stroke-width:3;stroke-linecap:round;stroke-linejoin:round;stroke-miterlimit:4;stroke-dasharray:none;stroke-opacity:1"
         id="path12681"
         inkscape:connector-curvature="0" />
    </g>
  </g>
  <g
     style="display:inline"
     inkscape:label="e2"
     id="layer10"
     inkscape:groupmode="layer"
     sodipodi:insensitive="true"
     transform="translate(43.884304,-324.69473)">
    <g
       id="g69964">
      <g
         style="font-style:normal;font-variant:normal;font-weight:normal;font-stretch:normal;font-size:160px;line-height:125%;font-family:'League Gothic';-inkscape-font-specification:'League Gothic';text-align:start;letter-spacing:0px;word-spacing:0px;writing-mode:lr-tb;text-anchor:start;fill:#ffcc00;fill-opacity:1;stroke:#000000;stroke-width:3;stroke-linecap:round;stroke-linejoin:round;stroke-miterlimit:4;stroke-dasharray:none;stroke-opacity:1"
         id="g69966">
        <path
           inkscape:connector-curvature="0"
           style="fill:#003399"
           d="m 260.92806,478.84204 38.41252,-6.10114 -59.59642,-37.23956 -41.57166,4.12667 z"
           id="path69968"
           sodipodi:nodetypes="ccccc" />
        <path
           inkscape:connector-curvature="0"
           style="fill:#000000"
           d="m 278.33535,503.87668 c 0,0 15.1696,-3.45353 15.1696,-3.45353 l -62.75556,-39.21403 c 0,0 -15.1696,3.45353 -15.1696,3.45353 z"
           id="path69976" />
        <path
           inkscape:connector-curvature="0"
           style="fill:#000000"
           d="m 278.02097,533.36612 c 0,0 20.85866,-6.26677 20.85866,-6.26677 l -62.75556,-39.21403 c 0,0 -20.85866,6.26677 -20.85866,6.26677 z"
           id="path69984" />
        <path
           inkscape:connector-curvature="0"
           style="fill:#000000"
           d="m 260.04364,549.45872 c 0,0 0.88437,-70.61668 0.88437,-70.61668 l -62.75556,-39.21403 c 0,0 -0.88437,70.61668 -0.88437,70.61668 z"
           id="path69990" />
      </g>
      <path
         id="path12711"
         style="font-style:normal;font-variant:normal;font-weight:normal;font-stretch:normal;font-size:160px;line-height:125%;font-family:'League Gothic';-inkscape-font-specification:'League Gothic';text-align:start;letter-spacing:0px;word-spacing:0px;writing-mode:lr-tb;text-anchor:start;fill:#ffcc00;fill-opacity:1;stroke:#000000;stroke-width:3;stroke-linecap:round;stroke-linejoin:round;stroke-miterlimit:4;stroke-dasharray:none;stroke-opacity:1"
         d="m 260.92806,478.84204 c 0,0 38.41252,-6.10114 38.41252,-6.10114 0,0 -0.0816,9.62416 -0.0816,9.62416 0,0 -20.73496,3.81376 -20.73496,3.81376 0,0 -0.18867,17.69786 -0.18867,17.69786 0,0 15.1696,-3.45353 15.1696,-3.45353 0,0 -0.0947,10.44113 -0.0947,10.44113 0,0 -15.19061,3.86539 -15.19061,3.86539 0,0 -0.19867,18.63645 -0.19867,18.63645 0,0 20.85866,-6.26677 20.85866,-6.26677 0,0 -0.0826,9.73491 -0.0826,9.73491 0,0 -38.75339,12.62446 -38.75339,12.62446 0,0 0.88437,-70.61668 0.88437,-70.61668 0,0 0,0 0,0"
         inkscape:connector-curvature="0" />
    </g>
  </g>
  <g
     style="display:inline"
     inkscape:groupmode="layer"
     id="layer9"
     inkscape:label="d1"
     sodipodi:insensitive="true"
     transform="translate(43.884304,-324.69473)">
    <g
       id="g66462">
      <g
         id="g66464"
         style="font-style:normal;font-variant:normal;font-weight:normal;font-stretch:normal;font-size:160px;line-height:125%;font-family:'League Gothic';-inkscape-font-specification:'League Gothic';text-align:start;letter-spacing:0px;word-spacing:0px;writing-mode:lr-tb;text-anchor:start;fill:#ffcc00;fill-opacity:1;stroke:#000000;stroke-width:3;stroke-linecap:round;stroke-linejoin:round;stroke-miterlimit:4;stroke-dasharray:none;stroke-opacity:1">
        <path
           d="m 172.80859,453.35352 c 0.6327,0.41087 1.1444,1.01897 1.54883,1.87109 0.6779,1.64157 1.20454,4.10141 1.30274,7.43945 0.0968,3.42737 0.0388,8.06043 -0.0332,13.95117 -0.0717,5.86625 -0.12737,10.44397 -0.30664,13.88086 -0.17889,3.43007 -0.75995,6.09778 -1.46875,7.93555 -1.56027,3.91408 -4.48596,5.14321 -9.69726,6.64453 l 64.57812,41.9375 c 5.2113,-1.50132 8.137,-2.73045 9.69727,-6.64453 0.7088,-1.83777 1.28986,-4.50548 1.46875,-7.93555 0.17927,-3.43689 0.23497,-8.01656 0.30664,-13.88281 0.072,-5.89074 0.12802,-10.52185 0.0312,-13.94922 -0.0982,-3.33804 -0.62484,-5.79788 -1.30274,-7.43945 -0.40443,-0.85212 -0.91418,-1.46022 -1.54687,-1.87109 l -64.57813,-41.9375 z"
           transform="translate(0,-1.5258789e-5)"
           id="path66484"
           style="fill:#000000"
           inkscape:connector-curvature="0" />
        <path
           id="path66466"
           d="m 213.00118,562.29439 c 0,0 0.19631,-74.89122 0.19631,-74.89122 l -64.57763,-41.93721 c 0,0 -0.19631,74.89122 -0.19631,74.89122 z"
           style="fill:#000000"
           inkscape:connector-curvature="0" />
        <path
           d="m 175.85742,441.37109 c -3.81537,-0.0609 -8.58361,0.51252 -14.53906,1.65625 l -12.69922,2.43946 64.57813,41.93554 12.69921,-2.4375 c 9.53193,-1.83059 16.01583,-2.1959 20.42774,-0.84179 l 5.21484,3.38672 c -0.65175,-0.80267 -1.40606,-1.4837 -2.27929,-2.05079 l -64.57813,-41.9375 c -2.14621,-1.39376 -5.00885,-2.08948 -8.82422,-2.15039 z"
           transform="translate(0,-1.5258789e-5)"
           id="path66468"
           style="fill:#003399"
           inkscape:connector-curvature="0" />
      </g>
      <path
         d="m 213.00118,562.29439 c 0,0 0.19631,-74.89122 0.19631,-74.89122 0,0 12.69837,-2.43871 12.69837,-2.43871 14.33403,-2.75283 21.78725,-2.20208 25.6427,2.54612 3.66007,4.69971 4.03521,13.51306 3.79191,27.37314 -0.24093,13.72546 -0.91606,22.47976 -4.6944,28.83303 -3.94246,6.44455 -11.27611,10.55947 -25.25994,14.81326 0,0 -12.37495,3.76438 -12.37495,3.76438 0,0 0,0 0,0 m 15.73165,-15.28112 c 5.2113,-1.50132 8.13647,-2.72947 9.69674,-6.64355 0.7088,-1.83777 1.28989,-4.50677 1.46878,-7.93684 0.17927,-3.43689 0.23521,-8.01513 0.30688,-13.88138 0.072,-5.89074 0.12857,-10.52236 0.0318,-13.94973 -0.0982,-3.33804 -0.62492,-5.7987 -1.30282,-7.44027 -1.50476,-3.17047 -4.47213,-2.95045 -9.77559,-1.84251 0,0 -0.4258,51.69428 -0.4258,51.69428 0,0 0,0 0,0"
         style="font-style:normal;font-variant:normal;font-weight:normal;font-stretch:normal;font-size:160px;line-height:125%;font-family:'League Gothic';-inkscape-font-specification:'League Gothic';text-align:start;letter-spacing:0px;word-spacing:0px;writing-mode:lr-tb;text-anchor:start;fill:#ffcc00;fill-opacity:1;stroke:#000000;stroke-width:3;stroke-linecap:round;stroke-linejoin:round;stroke-miterlimit:4;stroke-dasharray:none;stroke-opacity:1"
         id="path12891-5"
         inkscape:connector-curvature="0" />
    </g>
  </g>
  <g
     sodipodi:insensitive="true"
     inkscape:label="o1"
     id="layer8"
     inkscape:groupmode="layer"
     style="display:inline"
     transform="translate(43.884304,-324.69473)">
    <g
       id="g61606">
      <g
         style="font-style:normal;font-variant:normal;font-weight:normal;font-stretch:normal;font-size:160px;line-height:125%;font-family:'League Gothic';-inkscape-font-specification:'League Gothic';text-align:start;letter-spacing:0px;word-spacing:0px;writing-mode:lr-tb;text-anchor:start;fill:#ffcc00;fill-opacity:1;stroke:#000000;stroke-width:3;stroke-linecap:round;stroke-linejoin:round;stroke-miterlimit:4;stroke-dasharray:none;stroke-opacity:1"
         id="g61608">
        <path
           inkscape:connector-curvature="0"
           style="fill:#000000"
           id="path61660"
           transform="translate(0,-1.5258789e-5)"
           d="m 126.90625,465.16602 -0.0957,47.90625 c -0.002,1.23177 -0.16355,2.30714 -0.64453,3.29492 -0.6452,1.96023 -2.10201,3.94018 -5.21094,5.2832 -1.49264,0.64475 -2.66195,0.80497 -3.5,0.58984 l 63.07617,44.16407 c 0.83805,0.21513 2.00541,0.0569 3.49805,-0.58789 3.10893,-1.34302 4.56573,-3.32298 5.21093,-5.28321 0.48098,-0.98778 0.64207,-2.06315 0.64454,-3.29492 l 0.0957,-47.90625 -63.07422,-44.16601 z" />
        <path
           inkscape:connector-curvature="0"
           style="fill:#000000"
           id="path61618"
           transform="translate(0,-1.5258789e-5)"
           d="m 95.96875,473.56641 -0.505859,52.48242 c 0.15505,3.60572 1.263926,6.43447 3.310547,8.3457 l 2.861332,2.00391 c -0.54934,-0.25172 -1.05565,-0.53672 -1.51368,-0.85742 l 63.07422,44.16406 c 1.54376,1.08095 3.57319,1.80883 6.31055,1.92187 l -10.20898,-7.14843 c -0.43139,-1.26801 -0.69196,-2.68666 -0.75977,-4.26368 l 0.50586,-52.48242 -63.07422,-44.16601 z" />
        <path
           sodipodi:nodetypes="ccccccssscsscssc"
           inkscape:connector-curvature="0"
           id="path61626"
           d="m 99.398438,463.31443 c -2.05882,3.23134 -3.208928,6.73563 -3.429688,10.25196 l 63.07422,44.16601 c 0.22076,-3.51633 1.37087,-7.02061 3.42969,-10.25195 z m 63.074222,44.16602 c 1.66666,-2.75267 4.03544,-5.64506 7.60351,-8.20117 3.49522,-2.50391 8.26429,-4.69168 14.20117,-5.99805 5.73754,-1.2625 9.91622,-1.11109 12.94532,-0.19531 1.47837,0.44696 2.72843,1.07101 3.77343,1.80273 l -63.07421,-44.16601 c -1.04501,-0.73173 -2.29702,-1.35382 -3.7754,-1.80078 -1.51455,-0.4579 -3.31493,-0.72623 -5.45507,-0.72071 -2.14015,0.006 -4.61952,0.28477 -7.48829,0.91602 -5.93688,1.30637 -10.70595,3.49218 -14.20117,5.99609 -3.56807,2.55611 -5.93685,5.4485 -7.603512,8.20117"
           style="fill:#003399" />
      </g>
      <path
         d="m 206.25093,550.46207 c -0.13798,3.25325 -1.00169,6.5081 -2.60447,9.67838 -1.32468,2.74839 -3.41062,5.75336 -6.44108,8.78068 -3.08998,3.19806 -7.35625,6.19317 -13.21684,8.93081 -6.06856,2.83478 -10.93304,4.04128 -14.48231,3.77593 -3.6192,-0.14946 -6.00031,-1.37453 -7.65852,-3.06802 -2.04662,-1.91123 -3.15461,-4.73942 -3.30966,-8.34514 0,0 0.50448,-52.48257 0.50448,-52.48257 0.22076,-3.51633 1.37117,-7.02108 3.42999,-10.25242 1.66666,-2.75267 4.03614,-5.64503 7.60421,-8.20114 3.49522,-2.50391 8.26428,-4.69031 14.20116,-5.99668 5.73754,-1.2625 9.91479,-1.11121 12.94389,-0.19543 2.97661,0.89993 5.03076,2.51527 6.3398,4.28945 1.58721,2.00134 2.45013,4.58641 2.59869,7.56187 0,0 0.0907,45.52428 0.0907,45.52428 0,0 0,0 0,0 m -16.27015,-41.1309 c 0.004,-2.18574 -0.62271,-3.55021 -2.20509,-4.45528 -0.7967,-0.34548 -2.08053,-0.34926 -3.53754,0.0208 -3.11724,0.79179 -4.62094,2.74704 -5.29744,4.38676 -0.50846,1.03685 -0.68183,2.09997 -0.68737,3.23217 0,0 -0.24273,49.63763 -0.24273,49.63763 -0.0119,2.43826 0.83265,3.70251 2.51984,4.25171 0.83805,0.21513 2.00663,0.0553 3.49927,-0.58945 3.10893,-1.34302 4.56506,-3.32288 5.21026,-5.28311 0.48098,-0.98778 0.64246,-2.06322 0.64493,-3.29499 0,0 0.0959,-47.90626 0.0959,-47.90626 0,0 0,0 0,0"
         style="font-style:normal;font-variant:normal;font-weight:normal;font-stretch:normal;font-size:160px;line-height:125%;font-family:'League Gothic';-inkscape-font-specification:'League Gothic';text-align:start;letter-spacing:0px;word-spacing:0px;writing-mode:lr-tb;text-anchor:start;fill:#ffcc00;fill-opacity:1;stroke:#000000;stroke-width:3;stroke-linecap:round;stroke-linejoin:round;stroke-miterlimit:4;stroke-dasharray:none;stroke-opacity:1"
         id="path13029-3"
         inkscape:connector-curvature="0" />
    </g>
  </g>
  <g
     inkscape:groupmode="layer"
     id="layer7"
     inkscape:label="c1"
     sodipodi:insensitive="true"
     style="display:inline"
     transform="translate(43.884304,-324.69473)">
    <g
       id="g55378">
      <g
         id="g55380"
         style="font-style:normal;font-variant:normal;font-weight:normal;font-stretch:normal;font-size:160px;line-height:125%;font-family:'League Gothic';-inkscape-font-specification:'League Gothic';text-align:start;letter-spacing:0px;word-spacing:0px;writing-mode:lr-tb;text-anchor:start;fill:#ffcc00;fill-opacity:1;stroke:#000000;stroke-width:3;stroke-linecap:round;stroke-linejoin:round;stroke-miterlimit:4;stroke-dasharray:none;stroke-opacity:1">
        <path
           d="m 78.298828,533.2793 -0.25,18.23632 c -0.02705,1.98367 -0.274093,3.70161 -0.970703,5.25 -1.17343,3.19336 -3.262775,6.25285 -8.609375,8.5586 -2.12521,0.9165 -3.7834,1.07927 -4.96875,0.66601 l 51.91016,39.11915 c 1.18535,0.41326 2.84549,0.25048 4.9707,-0.66602 5.3466,-2.30575 7.43399,-5.36525 8.60742,-8.55859 0.69661,-1.5484 0.94561,-3.26633 0.97266,-5.25 l 0.24804,-18.23633 -51.910152,-39.11914 z"
           transform="translate(0,-1.5258789e-5)"
           id="path55436"
           style="fill:#000000"
           inkscape:connector-curvature="0" />
        <path
           id="path55444"
           d="m 130.20965,572.39747 c 0,0 21.77477,-8.09746 21.77477,-8.09746 l -51.91131,-39.11798 c 0,0 -21.774768,8.09746 -21.774768,8.09746 z"
           style="fill:#000000"
           inkscape:connector-curvature="0" />
        <path
           d="m 32.527344,484.38477 -0.921875,86.20117 c 0.209203,5.82252 1.782841,10.45478 4.695312,13.67773 0.734641,0.88567 1.568376,1.70462 2.525391,2.42578 l 51.912109,39.11719 c -0.957015,-0.72116 -1.792704,-1.53816 -2.527343,-2.42383 -2.912471,-3.22295 -4.48611,-7.85521 -4.695313,-13.67773 l 0.923828,-86.20117 -51.912109,-39.11914 z"
           transform="translate(0,-1.5258789e-5)"
           id="path55394"
           style="fill:#000000"
           inkscape:connector-curvature="0" />
        <path
           d="m 33.478345,477.84625 c -0.168957,0.7167 -0.316843,1.43755 -0.4436,2.16169 -0.253512,1.44827 -0.422512,2.9097 -0.506534,4.37737 l 51.911308,39.11798 c 0.08402,-1.46767 0.253018,-2.9291 0.506534,-4.37738 0.126757,-0.72413 0.274643,-1.44498 0.4436,-2.16168 z"
           id="path55945"
           style="fill:#003399"
           inkscape:connector-curvature="0" />
        <path
           style="fill:#000000"
           d="m 36.513565,469.50061 c -0.336606,0.66963 -0.652371,1.34687 -0.947237,2.03087 -0.589733,1.36799 -1.095872,2.76296 -1.517956,4.17801 -0.211042,0.70752 -0.40107,1.42007 -0.570027,2.13676 l 51.911308,39.11798 c 0.168957,-0.71669 0.358985,-1.42924 0.570028,-2.13676 0.422085,-1.41505 0.928226,-2.81003 1.517955,-4.17801 0.294866,-0.68399 0.610631,-1.36124 0.947237,-2.03088 z"
           id="path55949"
           inkscape:connector-curvature="0" />
        <path
           d="m 76.099609,465.83984 c 2.122772,1.59963 3.065627,3.8137 3.019532,7.19336 l -0.25,18.37696 51.912109,39.11718 0.25,-18.375 c 0.0461,-3.37966 -0.89676,-5.59569 -3.01953,-7.19531 L 76.099609,465.83984 Z"
           transform="translate(0,-1.5258789e-5)"
           id="path55418"
           style="fill:#000000"
           inkscape:connector-curvature="0" />
        <path
           style="fill:#003399"
           d="m 39.630932,464.14577 c -0.753694,1.12488 -1.431611,2.25264 -2.044994,3.36983 -0.378231,0.65355 -0.735661,1.31474 -1.072266,1.98438 l 51.912109,39.11914 c 0.336605,-0.66963 0.694036,-1.33278 1.072266,-1.98633 0.613383,-1.11719 1.291178,-2.24483 2.044689,-3.36953 z"
           id="path55954"
           inkscape:connector-curvature="0" />
        <path
           style="fill:#003399"
           d="m 95.482761,498.2672 c 0.503045,-0.54287 1.029257,-1.07998 1.580049,-1.60966 1.101584,-1.05936 2.30149,-2.089 3.61102,-3.07553 L 48.763672,454.46287 c -1.309529,0.98653 -2.509557,2.01629 -3.611324,3.07584 -0.550884,0.52977 -1.077202,1.06699 -1.580361,1.60997 z"
           id="path55958"
           inkscape:connector-curvature="0"
           sodipodi:nodetypes="csccscc" />
        <path
           style="fill:#000000"
           d="m 43.571987,459.14868 c -0.503159,0.54298 -0.983158,1.09173 -1.441402,1.64456 -0.916489,1.10566 -1.745959,2.22766 -2.499653,3.35253 l 51.911804,39.11749 c 0.753511,-1.12469 1.582737,-2.24644 2.498982,-3.35186 0.458122,-0.55271 0.937999,-1.10133 1.441043,-1.6442 z"
           id="path55400"
           inkscape:connector-curvature="0" />
        <path
           d="m 78.027344,445 c -2.521237,1.6e-4 -5.334994,0.25796 -8.472656,0.82812 -8.671321,1.57575 -15.658296,4.76805 -20.791016,8.63477 l 51.910158,39.11914 c 5.13272,-3.86672 12.12165,-7.06097 20.79297,-8.63672 6.82817,-1.24082 12.09796,-0.98197 16.1875,0.16602 l 11.66015,8.78515 c -1.17449,-1.99096 -2.79021,-3.90638 -4.91797,-5.50976 L 92.484375,449.26758 C 91.27595,448.35696 89.903426,447.54764 88.351562,446.88281 85.621437,445.7132 82.229404,444.99973 78.027344,445 Z"
           transform="translate(0,-1.5258789e-5)"
           id="path55404"
           style="fill:#003399"
           inkscape:connector-curvature="0" />
      </g>
      <path
         id="path13101"
         style="font-style:normal;font-variant:normal;font-weight:normal;font-stretch:normal;font-size:160px;line-height:125%;font-family:'League Gothic';-inkscape-font-specification:'League Gothic';text-align:start;letter-spacing:0px;word-spacing:0px;writing-mode:lr-tb;text-anchor:start;fill:#ffcc00;fill-opacity:1;stroke:#000000;stroke-width:3;stroke-linecap:round;stroke-linejoin:round;stroke-miterlimit:4;stroke-dasharray:none;stroke-opacity:1"
         d="m 151.98442,564.30001 c 0,0 -0.26115,17.39887 -0.26115,17.39887 -0.28299,5.24735 -1.58957,10.42597 -3.93404,15.39867 -1.93817,4.30998 -4.95323,8.96506 -9.29698,13.57619 -4.42762,4.87558 -10.50727,9.33273 -18.83385,13.2571 -8.62664,4.0658 -15.53371,5.62677 -20.568274,4.93815 -5.143129,-0.50979 -8.524649,-2.64825 -10.878894,-5.48648 -2.912471,-3.22295 -4.485455,-7.8553 -4.694658,-13.67782 0,0 0.922945,-86.2014 0.922945,-86.2014 0.336087,-5.87068 2.031799,-11.64154 5.057635,-16.86991 2.453531,-4.46878 5.939018,-9.10561 11.177136,-13.05173 5.13272,-3.86672 12.12136,-7.06012 20.79268,-8.63587 8.3671,-1.52048 14.42709,-0.81575 18.79529,1.05563 4.28433,1.83544 7.2102,4.77424 9.05173,7.89595 2.23254,3.52613 3.40253,7.94768 3.53293,12.93907 0,0 -0.26305,17.52559 -0.26305,17.52559 0,0 -21.80319,6.166 -21.80319,6.166 0,0 0.25063,-18.37641 0.25063,-18.37641 0.0497,-3.64395 -1.05135,-5.93399 -3.54018,-7.55855 -1.1415,-0.66063 -3.22536,-0.74775 -5.80661,-0.17303 -4.52533,1.00755 -6.73236,4.13225 -7.97918,6.86704 -0.7514,1.68492 -1.01731,3.44665 -1.28578,5.39913 0,0 -1.01698,81.56843 -1.01698,81.56843 0.195,3.83247 1.62139,5.83452 4.00791,6.85398 1.18535,0.41326 2.84429,0.25026 4.9695,-0.66624 5.3466,-2.30575 7.43566,-5.36523 8.60909,-8.55857 0.69661,-1.5484 0.94479,-3.26559 0.97184,-5.24926 0,0 0.24873,-18.23707 0.24873,-18.23707 0,0 21.77477,-8.09746 21.77477,-8.09746 0,0 0,0 0,0"
         inkscape:connector-curvature="0" />
    </g>
  </g>
  <g
     style="display:inline"
     sodipodi:insensitive="true"
     inkscape:label="r1"
     id="layer6"
     inkscape:groupmode="layer"
     transform="translate(43.884304,-324.69473)">
    <g
       id="g50640">
      <g
         style="font-style:normal;font-variant:normal;font-weight:normal;font-stretch:normal;font-size:160px;line-height:125%;font-family:'League Gothic';-inkscape-font-specification:'League Gothic';text-align:start;letter-spacing:0px;word-spacing:0px;writing-mode:lr-tb;text-anchor:start;fill:#ffcc00;fill-opacity:1;stroke:#000000;stroke-width:3;stroke-linecap:round;stroke-linejoin:round;stroke-miterlimit:4;stroke-dasharray:none;stroke-opacity:1"
         id="g50642">
        <path
           inkscape:connector-curvature="0"
           style="fill:#000000"
           id="path50668"
           transform="translate(0,-1.5258789e-5)"
           d="m 212.52344,336.23438 c 1.85284,1.1133 3.22738,3.17579 3.20117,6.7871 -0.03,4.14252 -1.87478,6.4752 -4.1543,7.82618 -2.30296,1.36488 -5.20859,1.83232 -7.41211,2.06445 l 60.00196,36.05273 c 2.20352,-0.23213 5.10915,-0.69957 7.41211,-2.06445 2.27952,-1.35098 4.12233,-3.68365 4.15234,-7.82617 0.0262,-3.61131 -1.34637,-5.67381 -3.19922,-6.78711 l -60.00195,-36.05273 z" />
        <path
           inkscape:connector-curvature="0"
           style="fill:#000000"
           d="m 276.12353,420.06493 c 0,0 -7.77241,-23.47269 -7.77241,-23.47269 l -60.00171,-36.05267 c 0,0 7.77241,23.47269 7.77241,23.47269 z"
           id="path50644" />
        <path
           inkscape:connector-curvature="0"
           style="fill:#000000"
           d="m 247.51014,425.24552 c 0,0 0.18838,-62.17377 0.18838,-62.17377 l -60.00171,-36.05267 c 0,0 -0.18838,62.17377 -0.18838,62.17377 z"
           id="path50652" />
        <path
           inkscape:connector-curvature="0"
           style="fill:#003399"
           id="path50654"
           transform="translate(0,-1.5258789e-5)"
           d="m 207.55273,326.19531 c -1.04156,0.004 -2.12246,0.0298 -3.24609,0.0801 l -16.60937,0.74414 60.00195,36.05274 16.60742,-0.74415 c 8.98906,-0.40212 15.32522,0.6748 19.43555,3.14454 l -60.00196,-36.05274 c -3.59653,-2.16102 -8.89657,-3.25411 -16.1875,-3.22461 z" />
      </g>
      <path
         d="m 276.12353,420.06493 c 0,0 -7.77241,-23.47269 -7.77241,-23.47269 0,0 -4.23558,0.52472 -4.23558,0.52472 0,0 -0.13873,25.14719 -0.13873,25.14719 0,0 -16.46667,2.98137 -16.46667,2.98137 0,0 0.18838,-62.17377 0.18838,-62.17377 0,0 16.60894,-0.74301 16.60894,-0.74301 18.3184,-0.81948 25.61918,4.50333 25.5187,15.23856 -0.0526,5.6241 -2.60257,10.97642 -8.1249,13.77554 0,0 8.92022,26.09717 8.92022,26.09717 0,0 -14.49795,2.62492 -14.49795,2.62492 0,0 0,0 0,0 m -11.96301,-31.10078 c 2.20352,-0.23213 5.1084,-0.6994 7.41136,-2.06428 2.27952,-1.35098 4.12362,-3.6823 4.15363,-7.82482 0.0301,-4.14767 -1.78539,-6.25467 -4.05387,-7.22398 -2.29342,-0.97999 -5.20378,-0.87263 -7.41269,-0.72961 0,0 -0.0984,17.84269 -0.0984,17.84269 0,0 0,0 0,0"
         style="font-style:normal;font-variant:normal;font-weight:normal;font-stretch:normal;font-size:160px;line-height:125%;font-family:'League Gothic';-inkscape-font-specification:'League Gothic';text-align:start;letter-spacing:0px;word-spacing:0px;writing-mode:lr-tb;text-anchor:start;fill:#ffcc00;fill-opacity:1;stroke:#000000;stroke-width:3;stroke-linecap:round;stroke-linejoin:round;stroke-miterlimit:4;stroke-dasharray:none;stroke-opacity:1"
         id="path12681-2"
         inkscape:connector-curvature="0" />
    </g>
  </g>
  <g
     style="display:inline"
     inkscape:groupmode="layer"
     id="layer5"
     inkscape:label="e1"
     sodipodi:insensitive="true"
     transform="translate(43.884304,-324.69473)">
    <g
       id="g47349">
      <g
         id="g47351"
         style="font-style:normal;font-variant:normal;font-weight:normal;font-stretch:normal;font-size:160px;line-height:125%;font-family:'League Gothic';-inkscape-font-specification:'League Gothic';text-align:start;letter-spacing:0px;word-spacing:0px;writing-mode:lr-tb;text-anchor:start;fill:#ffcc00;fill-opacity:1;stroke:#000000;stroke-width:3;stroke-linecap:round;stroke-linejoin:round;stroke-miterlimit:4;stroke-dasharray:none;stroke-opacity:1">
        <path
           id="path47353"
           d="m 201.12708,369.01652 37.63133,-3.53225 -61.28746,-36.82522 -37.63133,3.53225 z"
           style="fill:#003399"
           inkscape:connector-curvature="0" />
        <path
           id="path47361"
           d="m 218.8456,394.847 14.61791,-2.16958 -61.28746,-36.82522 -14.61791,2.16958 z"
           style="fill:#000000"
           inkscape:connector-curvature="0" />
        <path
           id="path47369"
           d="M 218.84396,423.78872 238.756,418.21007 177.46854,381.38485 157.5565,386.9635 Z"
           style="fill:#000000"
           inkscape:connector-curvature="0" />
        <path
           id="path47375"
           d="m 201.12228,439.71805 0.005,-70.70153 -61.28746,-36.82522 -0.005,70.70153 z"
           style="fill:#000000"
           inkscape:connector-curvature="0" />
      </g>
      <path
         sodipodi:nodetypes="cccccccccccccc"
         id="path12711-7"
         style="font-style:normal;font-variant:normal;font-weight:normal;font-stretch:normal;font-size:160px;line-height:125%;font-family:'League Gothic';-inkscape-font-specification:'League Gothic';text-align:start;letter-spacing:0px;word-spacing:0px;writing-mode:lr-tb;text-anchor:start;fill:#ffcc00;fill-opacity:1;stroke:#000000;stroke-width:3;stroke-linecap:round;stroke-linejoin:round;stroke-miterlimit:4;stroke-dasharray:none;stroke-opacity:1"
         d="m 201.12708,369.01652 37.63133,-3.53225 -4.5e-4,9.32157 -19.91136,2.58614 -0.001,17.45502 14.61791,-2.16958 -5.2e-4,10.1124 -14.61803,2.72933 -10e-4,18.26957 19.91204,-5.57865 -4.6e-4,10.61113 -37.63326,10.89685 0.005,-70.70153 0,0"
         inkscape:connector-curvature="0" />
    </g>
  </g>
  <g
     sodipodi:insensitive="true"
     inkscape:groupmode="layer"
     id="layer4"
     inkscape:label="p1"
     style="display:inline"
     transform="translate(43.884304,-324.69473)">
    <g
       id="g41722">
      <g
         style="font-style:normal;font-variant:normal;font-weight:normal;font-stretch:normal;font-size:160px;line-height:125%;font-family:'League Gothic';-inkscape-font-specification:'League Gothic';text-align:start;letter-spacing:0px;word-spacing:0px;writing-mode:lr-tb;text-anchor:start;fill:#ffcc00;fill-opacity:1;stroke:#000000;stroke-width:3.02512169;stroke-linecap:round;stroke-linejoin:round;stroke-miterlimit:4;stroke-dasharray:none;stroke-opacity:1"
         id="g41724">
        <path
           inkscape:connector-curvature="0"
           style="fill:#000000"
           id="path41746"
           transform="translate(0,-1.5258789e-5)"
           d="m 113.94531,344.30469 c 1.78699,1.41594 2.20034,4.16419 2.14844,8.17773 -0.0517,4.01888 -0.53672,6.77232 -2.37305,8.77344 -1.85661,2.12114 -5.11896,3.50546 -10.34765,4.76953 l 62.17773,41.93945 c 5.22869,-1.26407 8.49105,-2.64839 10.34766,-4.76953 1.83633,-2.00112 2.32129,-4.75456 2.37304,-8.77343 0.0519,-4.01355 -0.36144,-6.7618 -2.14843,-8.17774 l -62.17774,-41.93945 z" />
        <path
           inkscape:connector-curvature="0"
           style="fill:#003399"
           id="path41726"
           transform="translate(0,-1.5258789e-5)"
           d="m 111.94336,331.84375 c -2.59371,0.0285 -5.31232,0.28724 -8.07031,0.71484 l -18.037112,2.79688 62.177732,41.93945 18.03711,-2.79687 c 7.35464,-1.14029 14.41901,-1.07744 19.62695,1.33789 L 123.5,333.89648 c -3.25496,-1.50958 -7.2338,-2.10019 -11.55664,-2.05273 z" />
        <path
           inkscape:connector-curvature="0"
           style="fill:#000000"
           d="m 146.60738,455.70652 c 0,0 1.40638,-78.4125 1.40638,-78.4125 L 85.835942,335.35455 c 0,0 -1.40638,78.4125 -1.40638,78.4125 z"
           id="path41742" />
        <path
           inkscape:connector-curvature="0"
           d="m 148.01376,377.29402 c 0,0 0,0 0,0 L 85.835942,335.35455 c 0,0 0,0 0,0 z"
           id="path41744" />
      </g>
      <path
         id="path12745"
         style="font-style:normal;font-variant:normal;font-weight:normal;font-stretch:normal;font-size:160px;line-height:125%;font-family:'League Gothic';-inkscape-font-specification:'League Gothic';text-align:start;letter-spacing:0px;word-spacing:0px;writing-mode:lr-tb;text-anchor:start;fill:#ffcc00;fill-opacity:1;stroke:#000000;stroke-width:3.02512169;stroke-linecap:round;stroke-linejoin:round;stroke-miterlimit:4;stroke-dasharray:none;stroke-opacity:1"
         d="m 148.01376,377.29402 c 0,0 18.03771,-2.79662 18.03771,-2.79662 7.35464,-1.14029 14.41869,-1.07666 19.62663,1.33867 5.06784,2.3503 8.33918,6.99836 8.25811,14.86502 -0.0813,7.88717 -3.4769,13.8952 -8.64787,18.45488 -5.32628,4.69669 -12.48396,8.00328 -19.90487,10.01241 0,0 -0.45087,30.15001 -0.45087,30.15001 0,0 -18.32522,6.38813 -18.32522,6.38813 0,0 1.40638,-78.4125 1.40638,-78.4125 0,0 0,0 0,0 m 17.53726,30.67012 c 5.22869,-1.26407 8.49083,-2.64708 10.34744,-4.76822 1.83633,-2.00112 2.32158,-4.75504 2.37333,-8.77392 0.0519,-4.01354 -0.36157,-6.76133 -2.14856,-8.17727 -1.80338,-1.42894 -5.03233,-1.6231 -10.23746,-0.6665 0,0 -0.33475,22.38591 -0.33475,22.38591 0,0 0,0 0,0"
         inkscape:connector-curvature="0" />
    </g>
  </g>
  <g
     inkscape:groupmode="layer"
     id="layer3"
     inkscape:label="u1"
     sodipodi:insensitive="true"
     style="display:inline"
     transform="translate(43.884304,-324.69473)">
    <g
       id="g40885">
      <g
         id="g40887"
         style="font-style:normal;font-variant:normal;font-weight:normal;font-stretch:normal;font-size:160px;line-height:125%;font-family:'League Gothic';-inkscape-font-specification:'League Gothic';text-align:start;letter-spacing:0px;word-spacing:0px;writing-mode:lr-tb;text-anchor:start;fill:#ffcc00;fill-opacity:1;stroke:#ff6600;stroke-width:2.97922397;stroke-linecap:round;stroke-linejoin:round;stroke-miterlimit:4;stroke-dasharray:none;stroke-opacity:1">
        <path
           style="fill:#000000;stroke:#000000"
           d="m 25.408203,423.24023 c 0.226671,3.64742 1.444027,6.51564 3.630859,8.47657 0.439469,0.42959 0.924727,0.831 1.464844,1.19531 l 62.177735,41.93945 c -0.540118,-0.36431 -1.025376,-0.76571 -1.464844,-1.19531 -2.186833,-1.96093 -3.404188,-4.82914 -3.630859,-8.47656 L 25.408203,423.24023 Z"
           transform="translate(0,-1.5258789e-5)"
           id="path40901"
           inkscape:connector-curvature="0" />
        <path
           style="fill:#000000;stroke:#000000"
           d="m 59.232422,341.21875 -0.589844,69.5 c -0.01077,1.26692 -0.189601,2.36771 -0.707031,3.36914 -0.69653,1.99057 -2.250318,3.97624 -5.548828,5.27149 -0.150967,0.0593 -0.28305,0.094 -0.427735,0.14453 l -5.960937,-4.02149 c -0.0047,1.93472 0.536809,3.15604 1.617187,3.88477 l 62.177736,41.93945 c 0.3103,0.2093 0.66534,0.3764 1.06445,0.50977 0.88779,0.23805 2.12509,0.10361 3.70703,-0.51758 3.29851,-1.29525 4.8523,-3.28092 5.54883,-5.27149 0.51743,-1.00143 0.69626,-2.10222 0.70703,-3.36914 l 0.5918,-69.5 -62.179688,-41.93945 z"
           transform="translate(0,-1.5258789e-5)"
           id="path40911"
           inkscape:connector-curvature="0" />
        <path
           id="path40907"
           d="m 87.04696,389.96402 c 0,0 21.3126,-4.22143 21.3126,-4.22143 L 46.181742,343.80312 c 0,0 -21.3126,4.22143 -21.3126,4.22143 z"
           style="fill:#003399;stroke:#000000"
           inkscape:connector-curvature="0" />
        <path
           id="path40905"
           d="m 87.585815,465.17877 c 0,0 -0.538855,-75.21475 -0.538855,-75.21475 L 24.869142,348.02455 c 0,0 0.538855,75.21475 0.538855,75.21475 z"
           style="fill:#000000;stroke:#000000"
           inkscape:connector-curvature="0" />
        <path
           id="path40923"
           d="m 121.41118,383.15744 c 0,0 18.05777,-3.57674 18.05777,-3.57674 L 77.291132,337.64123 c 0,0 -18.05777,3.57674 -18.05777,3.57674 z"
           style="fill:#003399;stroke:#000000"
           inkscape:connector-curvature="0" />
      </g>
      <path
         d="m 139.46895,379.5807 c 0,0 -1.10923,66.46904 -1.10923,66.46904 -0.21009,3.36599 -1.19042,6.70043 -2.94851,9.91554 -1.44934,2.77743 -3.70142,5.78747 -6.94097,8.78645 -3.29125,3.15791 -7.80398,6.07303 -13.97348,8.68499 -6.36863,2.69626 -11.46578,3.79166 -15.191785,3.45041 -3.801488,-0.22764 -6.319224,-1.50133 -8.0881,-3.23047 -2.186833,-1.96093 -3.404389,-4.83047 -3.63106,-8.47789 0,0 -0.538855,-75.21475 -0.538855,-75.21475 0,0 21.3126,-4.22143 21.3126,-4.22143 0,0 -0.18352,71.67883 -0.18352,71.67883 -0.006,2.49039 0.89228,3.79791 2.68101,4.39563 0.88779,0.23805 2.1255,0.10262 3.70744,-0.51857 3.29851,-1.29525 4.85264,-3.28149 5.54917,-5.27206 0.51743,-1.00143 0.69621,-2.10192 0.70698,-3.36884 0,0 0.59054,-69.50014 0.59054,-69.50014 0,0 18.05777,-3.57674 18.05777,-3.57674 0,0 0,0 0,0"
         style="font-style:normal;font-variant:normal;font-weight:normal;font-stretch:normal;font-size:160px;line-height:125%;font-family:'League Gothic';-inkscape-font-specification:'League Gothic';text-align:start;letter-spacing:0px;word-spacing:0px;writing-mode:lr-tb;text-anchor:start;fill:#ffcc00;fill-opacity:1;stroke:#000000;stroke-width:2.97922397;stroke-linecap:round;stroke-linejoin:round;stroke-miterlimit:4;stroke-dasharray:none;stroke-opacity:1"
         id="path12787"
         inkscape:connector-curvature="0" />
    </g>
  </g>
  <g
     style="display:inline"
     inkscape:groupmode="layer"
     id="layer2"
     inkscape:label="s1"
     sodipodi:insensitive="true"
     transform="translate(43.884304,-324.69473)">
    <g
       id="g21987"
       transform="translate(-140.25688,-135.32207)">
      <g
         id="g21989"
         style="font-style:normal;font-variant:normal;font-weight:normal;font-stretch:normal;font-size:160px;line-height:125%;font-family:'League Gothic';-inkscape-font-specification:'League Gothic';text-align:start;letter-spacing:0px;word-spacing:0px;writing-mode:lr-tb;text-anchor:start;fill:#ffcc00;fill-opacity:1;stroke:#000000;stroke-width:3;stroke-linecap:round;stroke-linejoin:round;stroke-miterlimit:4;stroke-dasharray:none;stroke-opacity:1">
        <path
           id="path21991"
           d="m 196.26801,552.65582 c 0.0875,-4.76947 -0.0609,-10.0936 -1.71989,-13.84885 l -47.28065,-36.93969 c 1.65899,3.75525 1.80739,9.07938 1.71989,13.84885 z"
           style="fill:#000000;stroke:#000000;stroke-width:0.5;stroke-miterlimit:4;stroke-dasharray:none"
           inkscape:connector-curvature="0" />
        <path
           id="path21993"
           d="m 194.54812,538.80697 c -0.69894,-1.49447 -1.57802,-2.73542 -2.67656,-3.5937 l -47.28065,-36.93969 c 1.09855,0.85828 1.97762,2.09923 2.67656,3.5937 z"
           style="fill:#000000;stroke:#000000;stroke-width:0.5;stroke-miterlimit:4;stroke-dasharray:none"
           inkscape:connector-curvature="0" />
        <path
           id="path21995"
           d="m 191.87156,535.21327 c -1.53095,-1.1961 -3.48813,-1.649 -5.97802,-1.00915 l -47.28065,-36.93969 c 2.48989,-0.63985 4.44708,-0.18695 5.97802,1.00915 z"
           style="fill:#000000;stroke:#000000;stroke-width:0.5;stroke-miterlimit:4;stroke-dasharray:none"
           inkscape:connector-curvature="0" />
        <path
           id="path22015"
           d="m 152.11662,658.57008 c -5.59675,-5.63476 -6.91723,-15.28883 -6.9634,-25.85368 L 97.872575,595.77671 c 0.04617,10.56485 1.36665,20.21892 6.963395,25.85368 z"
           style="fill:#003399;stroke:#000000;stroke-width:3;stroke-miterlimit:4;stroke-dasharray:none"
           inkscape:connector-curvature="0" />
        <path
           style="fill:#000000;stroke:#000000;stroke-width:3;stroke-miterlimit:4;stroke-dasharray:none"
           d="m 101.54204,521.90861 c 0.0107,4.10413 0.92002,7.92907 2.40039,11.4082 2.99335,7.03494 7.54779,13.35852 13.67773,18.9043 6.03438,5.45932 11.77802,10.27479 16.86524,14.51562 2.46576,2.05553 4.71613,4.14243 6.72851,6.25391 3.92373,4.11695 6.56653,8.57692 6.48438,13.05469 -0.10102,5.50575 -1.3258,10.41308 -4.14258,13.9375 l -18.86328,-14.73828 c -0.0463,5.88281 0.1537,11.65389 2.08593,15.32031 0.63007,1.47253 1.43255,2.67279 2.48633,3.49609 l 47.28125,36.93946 c 1.74399,1.36255 4.17428,1.6926 7.64258,0.51953 7.66369,-2.59203 10.62916,-9.81877 10.78906,-18.53516 0.0822,-4.47777 -2.55869,-8.93774 -6.48242,-13.05469 -2.01238,-2.11148 -4.26275,-4.19839 -6.72851,-6.2539 -5.08723,-4.24082 -10.83086,-9.05631 -16.86524,-14.51563 -6.12994,-5.54578 -10.68438,-11.86935 -13.67773,-18.90429 -1.48037,-3.47913 -2.38971,-7.30408 -2.40039,-11.40821 z"
           id="path22560"
           inkscape:connector-curvature="0" />
        <path
           style="fill:#003399;stroke:#000000;stroke-width:3;stroke-miterlimit:4;stroke-dasharray:none"
           d="m 101.99643,515.51286 c -0.31518,2.1879 -0.45974,4.33244 -0.45439,6.39575 l 47.28125,36.93945 c -0.005,-2.06331 0.13909,-4.20785 0.45409,-6.39575 z"
           id="path22568"
           inkscape:connector-curvature="0" />
        <path
           style="fill:#000000;stroke:#000000;stroke-width:3;stroke-miterlimit:4;stroke-dasharray:none"
           d="m 150.75483,545.79646 c 0.33844,-1.11836 0.72472,-2.23808 1.16143,-3.35443 l -47.27991,-36.93945 c -0.43683,1.11635 -0.82322,2.23608 -1.16179,3.35443 -0.67713,2.23671 -1.16294,4.46796 -1.47813,6.65585 l 47.28095,36.93945 c 0.315,-2.18789 0.80056,-4.41914 1.47745,-6.65585"
           id="path22572"
           inkscape:connector-curvature="0" />
        <path
           style="fill:#003399;stroke:#000000;stroke-width:3;stroke-miterlimit:4;stroke-dasharray:none"
           d="m 151.91626,542.44203 c 0.93207,-2.35766 2.04234,-4.60111 3.24619,-6.6198 l -47.27938,-36.93945 c -1.29426,2.1813 -2.38281,4.42194 -3.24672,6.6198"
           id="path22564"
           inkscape:connector-curvature="0" />
        <path
           style="fill:#000000;stroke:#000000;stroke-width:3;stroke-miterlimit:4;stroke-dasharray:none"
           d="m 154.41645,537.1011 c 0.64881,-1.08393 2.09925,-3.4339 2.86191,-4.48741 l -47.27929,-36.93946 c -0.76266,1.05352 -2.21313,3.40348 -2.862,4.48742 z"
           id="path22019"
           inkscape:connector-curvature="0"
           sodipodi:nodetypes="ccccc" />
        <path
           id="path22017"
           d="m 145.15322,632.7164 c 0,0 26.81932,-10.53154 26.81932,-10.53154 l -47.28065,-36.93969 c 0,0 -26.819315,10.53154 -26.819315,10.53154 z"
           style="fill:#003399;stroke:#000000;stroke-width:3;stroke-miterlimit:4;stroke-dasharray:none"
           inkscape:connector-curvature="0" />
        <path
           id="path22047"
           d="m 221.89384,543.71912 c 0,0 -25.62583,8.9367 -25.62583,8.9367 l -47.28065,-36.93969 c 0,0 25.62583,-8.9367 25.62583,-8.9367 z"
           style="fill:#000000;stroke-width:3;stroke-miterlimit:4;stroke-dasharray:none"
           inkscape:connector-curvature="0" />
        <path
           d="m -25.102819,353.75153 c -1.920615,1.86471 -3.634495,3.84077 -5.154993,5.88909 l 47.279296,36.93946 c 1.520497,-2.04833 3.234378,-4.02438 5.154993,-5.88909 z m 47.279296,36.93946 c 1.920615,-1.8647 4.047964,-3.61805 6.395397,-5.22095 4.694867,-3.2058 10.270073,-5.80982 16.832423,-7.49934 13.27618,-3.3726 21.863284,-1.88477 27.248047,2.32227 L 25.373047,343.35352 c -3.365477,-2.6294 -7.982503,-4.19545 -14.212891,-4.17774 -3.7382327,0.0106 -8.0565886,0.59074 -13.035156,1.85547 -6.56235,1.68952 -12.137555,4.29354 -16.832422,7.49934 -2.347434,1.6029 -4.474782,3.35624 -6.395397,5.22094 z"
           transform="translate(140.25688,136.03361)"
           id="path22039"
           style="fill:#003399;stroke:#000000;stroke-width:3;stroke-miterlimit:4;stroke-dasharray:none"
           inkscape:connector-curvature="0"
           sodipodi:nodetypes="ccccccsccsscscc" />
        <path
           style="fill:#000000;stroke:none;stroke-width:3;stroke-miterlimit:4;stroke-dasharray:none"
           d="m 152.11662,658.57008 c -5.59675,-5.63476 -6.91723,-15.28883 -6.9634,-25.85368 L 97.872575,595.77671 c 0.04617,10.56485 1.36665,20.21892 6.963395,25.85368 z"
           id="path22556"
           inkscape:connector-curvature="0" />
      </g>
      <path
         id="path12965"
         style="font-style:normal;font-variant:normal;font-weight:normal;font-stretch:normal;font-size:160px;line-height:125%;font-family:'League Gothic';-inkscape-font-specification:'League Gothic';text-align:start;letter-spacing:0px;word-spacing:0px;writing-mode:lr-tb;text-anchor:start;fill:#ffcc00;fill-opacity:1;stroke:#000000;stroke-width:3;stroke-linecap:round;stroke-linejoin:round;stroke-miterlimit:4;stroke-dasharray:none;stroke-opacity:1"
         d="m 196.26801,552.65582 c 0.0875,-4.76947 -0.0609,-10.0936 -1.71989,-13.84885 -1.67299,-3.57718 -4.37804,-5.70184 -8.65458,-4.60285 -7.10709,2.03024 -9.46345,8.54157 -9.54669,17.2631 -0.0481,5.04 2.6819,9.49093 6.63456,13.94947 3.90941,4.40974 9.00114,8.61246 14.02017,13.14846 5.88903,5.34089 11.68236,10.78882 15.98505,16.39971 4.24633,5.53742 7.05059,11.62994 6.83314,18.99366 -0.26439,8.95401 -2.33747,17.91406 -7.78052,25.85772 -5.45713,7.9642 -14.14843,14.94201 -28.09593,19.85085 -16.69541,5.87597 -26.31419,4.45292 -31.8267,-1.09701 -5.59675,-5.63476 -6.91723,-15.28883 -6.9634,-25.85368 0,0 26.81932,-10.53154 26.81932,-10.53154 -0.0463,5.88281 0.15451,11.65295 2.08674,15.31937 1.67281,3.90952 4.56575,5.89802 10.12974,4.01614 7.66369,-2.59203 10.62944,-9.81874 10.78929,-18.53513 0.0822,-4.47777 -2.70395,-8.80434 -6.48298,-13.0545 -2.15016,-1.971 -4.31017,-4.1444 -6.7292,-6.25471 -5.13303,-4.18526 -10.83114,-9.05577 -16.86552,-14.51509 -6.12994,-5.54578 -10.79202,-11.82465 -13.67783,-18.90439 -1.58686,-3.43187 -2.38933,-7.30397 -2.40001,-11.4081 -0.0214,-8.25323 2.35475,-17.80587 8.45601,-26.234 6.08199,-8.1933 15.2581,-15.23033 28.3828,-18.60937 16.35824,-4.15555 25.59813,-0.93189 30.49941,5.66518 4.82396,6.69933 5.9702,16.011 5.73285,24.04886 0,0 -25.62583,8.9367 -25.62583,8.9367 0,0 0,0 0,0"
         inkscape:connector-curvature="0" />
    </g>
  </g>
</svg>
